<svg width="40" height="40" fill="none" xmlns="http://www.w3.org/2000/svg"><path d="M9 35.5L30.5 5" stroke="#EEE"/><path d="M6.12 15H5.031V5.006h3.93v.97H6.12V9.71H8.8v.984H6.12V15zm7.142-7.636c.105 0 .21.01.315.028.104.013.214.038.328.075l-.164 1.08a1.004 1.004 0 00-.26-.075 1.984 1.984 0 00-.294-.02.896.896 0 00-.567.204 1.646 1.646 0 00-.438.56 3.429 3.429 0 00-.287.842 4.947 4.947 0 00-.089 1.032V15h-1.053V7.494h.82l.144 1.333h.069c.104-.287.228-.54.369-.759.141-.218.303-.39.485-.512.187-.128.394-.192.622-.192z" fill="#EEE"/><path d="M25.175 35h-4.211v-9.994h4.21v1.299h-2.706v2.837h2.536v1.305h-2.536v3.22h2.707V35zm5.092-7.725c.62 0 1.091.221 1.415.664.328.442.492 1.098.492 1.968V35H30.74v-4.724c0-.57-.066-.998-.198-1.285-.133-.291-.36-.437-.684-.437-.438 0-.752.203-.944.608-.186.406-.28 1.078-.28 2.017V35h-1.435v-7.581h1.141l.15 1.032h.096c.11-.246.246-.456.41-.629a1.706 1.706 0 011.271-.547zm5.885 11.088c-.784 0-1.394-.184-1.832-.553-.437-.37-.656-.89-.656-1.559 0-.483.125-.886.376-1.21.255-.324.586-.542.991-.656a1.215 1.215 0 01-.506-.417 1.147 1.147 0 01-.191-.663c0-.274.061-.51.184-.711.128-.2.301-.399.52-.595-.287-.178-.517-.46-.69-.848a3.307 3.307 0 01-.253-1.319c0-.529.09-.982.273-1.36.182-.379.447-.67.793-.875.346-.205.766-.308 1.258-.308.155 0 .29.01.403.027.114.014.214.032.3.055.092.023.17.05.233.082h2.038v.882l-.95.164c.104.187.18.392.225.615.05.224.075.458.075.704 0 .798-.203 1.42-.608 1.867-.401.442-.971.663-1.71.663-.227 0-.4-.02-.519-.062-.1.091-.191.198-.273.321a.809.809 0 00-.117.452c0 .118.03.223.09.314a.55.55 0 00.266.198c.118.046.267.069.444.069h1.176c.583 0 1.032.166 1.347.499.319.332.478.838.478 1.517 0 .866-.27 1.534-.813 2.003-.538.47-1.322.704-2.352.704zm.103-1.1c.383 0 .7-.053.95-.157a1.12 1.12 0 00.567-.479c.123-.21.185-.467.185-.773 0-.25-.039-.442-.116-.574a.583.583 0 00-.349-.266 2.064 2.064 0 00-.608-.076h-.944a.936.936 0 00-.478.123.858.858 0 00-.328.383c-.078.173-.117.401-.117.684 0 .374.11.656.329.848.223.191.526.287.909.287zm.17-5.934a.716.716 0 00.65-.376c.15-.255.226-.629.226-1.121 0-.515-.078-.898-.233-1.148-.15-.256-.367-.383-.65-.383-.277 0-.494.132-.649.396-.15.265-.225.645-.225 1.142 0 .478.073.848.219 1.107a.715.715 0 00.663.383z" fill="#77DAF4"/></svg>