<svg width="40" height="40" fill="none" xmlns="http://www.w3.org/2000/svg"><path d="M9 35.5L30.5 5" stroke="#EEE"/><path d="M6.468 15H4.964V5.006H9.16v1.299H6.468V9.53h2.53v1.313h-2.53V15zm7.402-7.718c.1 0 .201.01.301.028.1.013.212.038.335.075l-.164 1.51a1.103 1.103 0 00-.28-.075 2.49 2.49 0 00-.321-.02.99.99 0 00-.568.17c-.164.11-.305.27-.424.48-.118.204-.21.446-.273.724-.06.278-.087.583-.082.916V15h-1.436V7.419h1.108l.205 1.292h.075c.105-.264.23-.504.376-.718a1.85 1.85 0 01.506-.52c.191-.127.406-.19.643-.19z" fill="#77DAF4"/><path d="M24.963 35h-3.93v-9.994h3.93v.97h-2.844v3.316h2.673v.977h-2.673v3.74h2.844V35zm4.805-7.643c.592 0 1.041.208 1.347.623.305.414.458 1.05.458 1.907V35H30.52v-4.901c0-.607-.08-1.06-.24-1.36a.775.775 0 00-.738-.452c-.492 0-.852.219-1.08.656-.227.438-.341 1.14-.341 2.106V35h-1.053v-7.506h.84l.117 1.087h.068c.105-.25.24-.467.404-.65.164-.182.353-.323.567-.423.214-.1.449-.15.704-.15zm5.66 11.006c-.716 0-1.279-.182-1.689-.547-.41-.364-.615-.875-.615-1.53 0-.516.123-.937.369-1.266a1.76 1.76 0 01.95-.656 1.167 1.167 0 01-.471-.41 1.165 1.165 0 01-.178-.65c0-.255.06-.487.178-.697.123-.21.294-.41.512-.601-.291-.173-.522-.451-.69-.834-.169-.383-.253-.823-.253-1.32 0-.51.082-.95.246-1.319a1.98 1.98 0 01.725-.868c.314-.205.69-.308 1.127-.308a2.195 2.195 0 01.643.076c.082.022.155.05.219.082h1.86v.676l-1.006.123c.128.206.221.44.28.705.06.26.09.524.09.793 0 .77-.183 1.376-.547 1.818-.365.437-.88.656-1.545.656-.205 0-.37-.02-.492-.061a2.092 2.092 0 00-.329.39 1 1 0 00-.136.54c0 .131.03.248.088.348.064.1.155.178.274.232.119.055.264.082.438.082h1.08c.56 0 .99.162 1.291.486.306.323.459.816.459 1.476 0 .82-.249 1.456-.746 1.907-.492.452-1.203.677-2.132.677zm.082-.834c.396 0 .727-.061.99-.184.27-.119.47-.301.602-.547.137-.246.206-.552.206-.916 0-.296-.048-.524-.144-.684a.706.706 0 00-.397-.328 1.932 1.932 0 00-.622-.089h-.895c-.21 0-.401.048-.574.144a.966.966 0 00-.404.444c-.1.205-.15.479-.15.82 0 .443.123.775.37.998.25.228.59.342 1.018.342zm.13-6.022a.847.847 0 00.758-.424c.183-.282.274-.697.274-1.244 0-.574-.094-1.003-.28-1.285a.863.863 0 00-.766-.424c-.32 0-.57.153-.752.458-.182.3-.274.724-.274 1.271 0 .524.087.93.26 1.217.173.287.433.43.78.43z" fill="#EEE"/></svg>