<svg width="40" height="40" fill="none" xmlns="http://www.w3.org/2000/svg"><g clip-path="url(#clip0_1619_1930)" fill="#EEE"><path d="M23.985 7.63l8.448 2.816c.404 2.43 1.909 13.075-4.828 20.25a17.79 17.79 0 01-3.62 2.95V7.629zm-8.108 0l-8.45 2.816c-.402 2.43-1.908 13.074 4.829 20.25a17.79 17.79 0 003.62 2.95V7.629zM19.85 40l2.464-5.856h-4.867L19.85 40zm-2.403-5.856l.776-27.746h3.258l.833 27.746h-4.867z"/><path d="M16.09 6.825l7.58.03v-1.92l-7.58-.03v1.92z"/><path d="M18.756 6.854l2.249-.008V1.135h-2.25v5.72z"/><path d="M19.88 1.395c.845 0 1.528-.313 1.528-.698 0-.385-.684-.697-1.527-.697-.844 0-1.528.312-1.528.697 0 .385.684.698 1.528.698z"/></g><defs><clipPath id="clip0_1619_1930"><path fill="#fff" transform="translate(7)" d="M0 0h25.861v40H0z"/></clipPath></defs></svg>